# xmcd CD database file
#
# Track frame offsets:
#	150
#	36300
#	65102
#	100372
#	120572
#	152382
#	183597
#
# Disc length: 2978 seconds
#
# Revision: 0
# Processed by: cddbd v1.5.1PL2 Copyright (c) Steve Scherf et al.
# Submitted via: CDex 1.50beta10
#
DISCID=5c0ba007
DTITLE=New Soul Underground - Greasy Feet
DYEAR=2005
DGENRE=Blues
TTITLE0=Bootyhoop
TTITLE1=Greasy Feet
TTITLE2=Big Duke
TTITLE3=Greeny's
TTITLE4=Poundcake
TTITLE5=Half Steppin
TTITLE6=Pitfall
EXTD=YEAR: 2005
EXTT0=
EXTT1=
EXTT2=
EXTT3=
EXTT4=
EXTT5=
EXTT6=
PLAYORDER=
